Coordinates
version=1
nRows=18
nColumns=33
inDegrees=yes

Units are S.I. units (second, meters, Newtons, ...)
Angles are in degrees.

endheader
time	ground_thorax_rot_x	ground_thorax_rot_y	ground_thorax_rot_z	ground_thorax_tx	ground_thorax_ty	ground_thorax_tz	clav_prot_r	clav_elev_r	scapula_abduction_r	scapula_elevation_r	scapula_upward_rot_r	scapula_winging_r	shoulder_elv_r	plane_of_elev_r	axial_rot_r	elbow_flexion_r	pro_sup_r	wrist_flex_r	wrist_dev_r	clav_prot_l	clav_elev_l	scapula_abduction_l	scapula_elevation_l	scapula_upward_rot_l	scapula_winging_l	shoulder_elv_l	plane_of_elev_l	axial_rot_l	elbow_flexion_l	pro_sup_l	wrist_flex_l	wrist_dev_l	
1.7300	1.476587	5.130902	12.769431	-0.116127	1.033085	0.033296	3.205998	10.671980	18.521851	5.699804	25.695133	-10.901818	28.307671	-71.997604	55.148866	71.632545	-10.684599	36.707743	-24.997729	16.558464	-8.236977	-25.274364	-16.403808	-41.078530	4.143474	65.232564	-26.954676	0.198692	68.022352	7.013318	19.940692	-13.030371	
1.7400	1.405229	5.073541	12.819001	-0.116176	1.032801	0.032861	3.335324	10.412566	18.942481	5.444818	25.799015	-11.015265	28.596231	-71.407194	54.924200	71.691767	-10.203881	34.207179	-24.995932	16.818276	-8.475075	-25.616157	-16.017617	-40.735979	4.363938	65.303881	-26.207362	0.175394	67.099438	6.357792	20.642024	-12.107667	
1.7500	1.335003	5.019113	12.864031	-0.116202	1.032488	0.032407	3.480611	10.114346	19.372045	5.168462	25.868523	-11.123332	28.860813	-70.754760	54.682980	71.630958	-9.755014	31.763454	-24.992711	17.082558	-8.729675	-25.962797	-15.611418	-40.382005	4.585597	65.352466	-25.423235	0.155069	66.051034	5.678744	21.322279	-11.182220	
1.7600	1.259713	4.961989	12.908774	-0.116204	1.032124	0.031929	3.653147	9.779643	19.833881	4.870955	25.908059	-11.233311	29.067861	-70.039850	54.456184	71.409613	-9.515983	29.569420	-24.986949	17.344802	-8.984104	-26.299689	-15.191519	-39.996552	4.804048	65.371177	-24.618299	0.122494	64.876032	5.038280	21.957749	-10.322687	
1.7700	1.185170	4.905025	12.944044	-0.116176	1.031721	0.031434	3.846193	9.413842	20.325489	4.552209	25.932819	-11.346293	29.220775	-69.266077	54.258641	71.008843	-9.480070	27.635020	-24.976608	17.605795	-9.254000	-26.628585	-14.745600	-39.583677	5.018866	65.370802	-23.802927	0.070390	63.583500	4.465422	22.508243	-9.562494	
1.7800	1.106164	4.844094	12.978873	-0.116125	1.031247	0.030913	4.074936	9.022013	20.864162	4.219313	25.932274	-11.466510	29.293215	-68.427113	54.117735	70.399051	-9.816744	26.055575	-24.958136	17.864511	-9.515780	-26.946155	-14.287538	-39.127333	5.231516	65.332022	-22.981740	-0.010123	62.174377	3.963930	23.005602	-8.922028	
1.7900	1.025354	4.778946	13.004820	-0.116048	1.030728	0.030366	4.334412	8.598762	21.442734	3.867239	25.908834	-11.590687	29.289226	-67.525750	54.042360	69.553430	-10.494351	24.798483	-24.924903	18.120413	-9.777810	-27.253013	-13.812820	-38.634082	5.440540	65.258698	-22.153725	-0.108127	60.654097	3.531932	23.449520	-8.384034	
1.8000	0.937748	4.709222	13.033560	-0.115952	1.030159	0.029795	4.627876	8.141489	22.060506	3.495785	25.856100	-11.715968	29.202474	-66.574835	54.057375	68.464160	-11.510020	23.684887	-24.865777	18.378734	-10.030532	-27.560684	-13.332905	-38.110682	5.650383	65.137744	-21.314563	-0.207996	59.025538	3.117136	23.907992	-7.876108	
1.8100	0.843622	4.634335	13.050555	-0.115829	1.029551	0.029195	4.942393	7.649231	22.700900	3.101143	25.785212	-11.835803	29.012110	-65.570153	54.206039	67.057181	-12.809314	22.621070	-24.758741	18.640934	-10.272778	-27.876446	-12.853055	-37.567712	5.864704	64.968077	-20.448157	-0.284288	57.298008	2.703566	24.357579	-7.377750	
1.8200	0.739582	4.555878	13.066343	-0.115677	1.028936	0.028560	5.279108	7.102608	23.358017	2.670721	25.684215	-11.940941	28.672851	-64.534579	54.554617	65.214571	-14.531491	21.621936	-24.570143	18.903873	-10.503171	-28.195537	-12.374803	-37.005430	6.080685	64.744180	-19.557087	-0.334810	55.462026	2.313662	24.783312	-6.894915	
1.8300	0.618652	4.469311	13.076266	-0.115487	1.028310	0.027864	5.639126	6.478827	24.031242	2.187013	25.547819	-12.020129	28.068965	-63.484647	55.265977	62.660369	-17.044237	20.730642	-24.223560	19.163883	-10.690496	-28.513499	-11.918619	-36.408362	6.302473	64.436101	-18.618296	-0.340534	53.509984	1.979864	25.159722	-6.449138	
1.8400	0.474509	4.381499	13.082257	-0.115269	1.027714	0.027081	6.034422	5.722307	24.715526	1.615736	25.335254	-12.050379	27.112533	-62.465209	56.516595	59.098958	-20.672479	19.945524	-23.627154	19.423273	-10.846565	-28.834439	-11.476245	-35.781692	6.529784	64.066015	-17.647053	-0.318592	51.457289	1.747876	25.467977	-6.039830	
1.8500	0.286367	4.281684	13.078964	-0.115025	1.027107	0.026100	6.495788	4.722053	25.398672	0.893185	24.947843	-11.975863	25.455183	-61.531637	58.866048	53.567826	-26.616333	19.175334	-22.490649	19.680346	-10.894780	-29.160701	-11.100419	-35.094142	6.778660	63.568261	-16.592894	-0.242438	49.305308	1.637173	25.710222	-5.673606	
1.8600	0.040017	4.171669	13.058852	-0.114766	1.026545	0.024859	7.040247	3.379038	26.072902	-0.045337	24.324288	-11.754939	22.937088	-60.742006	62.668204	45.536042	-35.499112	18.450555	-20.645119	19.937390	-10.843250	-29.497468	-10.786500	-34.352044	7.050679	62.971046	-15.467476	-0.116246	47.076253	1.705667	25.870335	-5.341210	
1.8700	-0.377666	4.018572	13.008587	-0.114513	1.026028	0.022914	7.854010	1.015796	26.658042	-1.581186	22.837120	-11.096044	18.247777	-60.493761	69.981298	30.996466	-51.696830	16.767833	-16.808127	20.176519	-10.510160	-29.824629	-10.655062	-33.470176	7.369951	62.181133	-14.206111	0.077382	44.796539	2.001441	25.929270	-5.002128	
1.8800	-0.936875	3.851812	12.911900	-0.114248	1.025651	0.020455	8.866398	-2.181846	27.153221	-3.622983	20.688680	-10.069579	12.012686	-60.737800	79.982467	11.704600	-73.249362	14.205536	-11.417470	20.413008	-10.023503	-30.164681	-10.619229	-32.506888	7.727712	61.331577	-12.894993	0.296333	42.515156	2.525326	25.859562	-4.662803	
1.8900	-1.606194	3.685817	12.782492	-0.113948	1.025374	0.017648	10.012089	-5.981149	27.547902	-6.033236	18.061459	-8.754952	4.764159	-61.400356	91.905400	-10.710500	-98.491756	10.642196	-4.870821	20.664609	-9.402394	-30.548802	-10.672771	-31.487231	8.137746	60.408369	-11.530360	0.560636	40.227938	3.178725	25.693439	-4.328044	
1.9000	-2.239563	3.572376	12.643386	-0.113587	1.025236	0.015136	11.040949	-9.478321	27.932629	-8.304740	15.788285	-7.531216	-1.551574	-62.022098	102.781963	-30.345453	-121.021848	7.154581	1.079683	20.959929	-8.921670	-31.013564	-10.641947	-30.559376	8.568326	59.598633	-10.241938	0.819831	37.953851	3.888530	25.443792	-4.040780	
